{
	"patcher" : 	{
		"fileversion" : 1,
		"appversion" : 		{
			"major" : 6,
			"minor" : 1,
			"revision" : 9,
			"architecture" : "x86"
		}
,
		"rect" : [ 25.0, 69.0, 300.0, 285.0 ],
		"bglocked" : 0,
		"openinpresentation" : 1,
		"default_fontsize" : 12.0,
		"default_fontface" : 0,
		"default_fontname" : "Helvetica Neue",
		"gridonopen" : 0,
		"gridsize" : [ 15.0, 15.0 ],
		"gridsnaponopen" : 0,
		"statusbarvisible" : 2,
		"toolbarvisible" : 1,
		"boxanimatetime" : 200,
		"imprint" : 0,
		"enablehscroll" : 1,
		"enablevscroll" : 1,
		"devicewidth" : 0.0,
		"description" : "Pans a mono signal between 3 frontal speakers.",
		"digest" : "Pans a mono signal between 3 frontal speakers. Can be given arguments for pan position (100.00–100.00) and sound width (0.00–100.00). Defaults are 0. (centre) and 33.33%",
		"tags" : "pan, mono, three",
		"showontab" : 0,
		"boxes" : [ 			{
				"box" : 				{
					"fontname" : "Helvetica Neue",
					"fontsize" : 12.0,
					"id" : "obj-3",
					"maxclass" : "newobj",
					"numinlets" : 1,
					"numoutlets" : 4,
					"outlettype" : [ "", "", "", "" ],
					"patching_rect" : [ 225.0, 210.0, 59.5, 20.0 ],
					"restore" : 					{
						"#1-front3-pan" : [ 0.0 ],
						"#1-front3-width" : [ 33.333 ]
					}
,
					"text" : "autopattr",
					"varname" : "u861001544"
				}

			}
, 			{
				"box" : 				{
					"comment" : "(int/float) width of sound (0.00–100.00)",
					"id" : "obj-8",
					"maxclass" : "inlet",
					"numinlets" : 0,
					"numoutlets" : 1,
					"outlettype" : [ "" ],
					"patching_rect" : [ 225.0, 15.0, 25.0, 25.0 ]
				}

			}
, 			{
				"box" : 				{
					"comment" : "(int/float) Pan position (-100.00–100.00)",
					"id" : "obj-7",
					"maxclass" : "inlet",
					"numinlets" : 0,
					"numoutlets" : 1,
					"outlettype" : [ "" ],
					"patching_rect" : [ 60.0, 15.0, 25.0, 25.0 ]
				}

			}
, 			{
				"box" : 				{
					"fontname" : "Helvetica Neue",
					"fontsize" : 12.0,
					"id" : "obj-6",
					"maxclass" : "newobj",
					"numinlets" : 1,
					"numoutlets" : 3,
					"outlettype" : [ "", "float", "float" ],
					"patching_rect" : [ 90.0, 75.0, 120.0, 20.0 ],
					"text" : "unpack #1 0. 33.333"
				}

			}
, 			{
				"box" : 				{
					"color" : [ 1.0, 0.611765, 0.611765, 1.0 ],
					"fontname" : "Helvetica Neue",
					"fontsize" : 12.0,
					"id" : "obj-2",
					"maxclass" : "newobj",
					"numinlets" : 1,
					"numoutlets" : 1,
					"outlettype" : [ "bang" ],
					"patching_rect" : [ 90.0, 15.0, 61.0, 20.0 ],
					"text" : "loadbang"
				}

			}
, 			{
				"box" : 				{
					"color" : [ 0.8, 0.84, 0.7, 1.0 ],
					"fontname" : "Helvetica Neue",
					"fontsize" : 12.0,
					"id" : "obj-1",
					"maxclass" : "newobj",
					"numinlets" : 1,
					"numoutlets" : 2,
					"outlettype" : [ "", "" ],
					"patching_rect" : [ 90.0, 45.0, 141.0, 20.0 ],
					"text" : "patcherargs #1 0 33.333"
				}

			}
, 			{
				"box" : 				{
					"appearance" : 1,
					"bordercolor" : [ 0.8, 0.84, 0.7, 1.0 ],
					"id" : "obj-74",
					"maxclass" : "live.dial",
					"numinlets" : 1,
					"numoutlets" : 2,
					"outlettype" : [ "", "float" ],
					"parameter_enable" : 1,
					"patching_rect" : [ 225.0, 105.0, 58.0, 36.0 ],
					"presentation" : 1,
					"presentation_rect" : [ 98.0, 1.5, 45.0, 36.0 ],
					"prototypename" : "amount",
					"saved_attribute_attributes" : 					{
						"valueof" : 						{
							"parameter_linknames" : 1,
							"parameter_longname" : "#1-front3-width",
							"parameter_shortname" : "width",
							"parameter_type" : 0,
							"parameter_mmax" : 100.0,
							"parameter_initial_enable" : 1,
							"parameter_initial" : [ 33.333 ],
							"parameter_unitstyle" : 5,
							"parameter_speedlim" : 0.0
						}

					}
,
					"varname" : "#1-front3-width"
				}

			}
, 			{
				"box" : 				{
					"color" : [ 0.8, 0.84, 0.7, 1.0 ],
					"fontname" : "Helvetica Neue",
					"fontsize" : 12.0,
					"id" : "obj-63",
					"maxclass" : "newobj",
					"numinlets" : 2,
					"numoutlets" : 1,
					"outlettype" : [ "float" ],
					"patching_rect" : [ 225.0, 150.0, 58.0, 20.0 ],
					"text" : "+ 33.333"
				}

			}
, 			{
				"box" : 				{
					"color" : [ 0.8, 0.84, 0.7, 1.0 ],
					"fontname" : "Helvetica Neue",
					"fontsize" : 12.0,
					"id" : "obj-44",
					"maxclass" : "newobj",
					"numinlets" : 2,
					"numoutlets" : 1,
					"outlettype" : [ "float" ],
					"patching_rect" : [ 225.0, 180.0, 41.0, 20.0 ],
					"text" : "/ 100."
				}

			}
, 			{
				"box" : 				{
					"comment" : "(signal) far right speaker",
					"id" : "obj-40",
					"maxclass" : "outlet",
					"numinlets" : 1,
					"numoutlets" : 0,
					"patching_rect" : [ 195.0, 240.0, 25.0, 25.0 ]
				}

			}
, 			{
				"box" : 				{
					"comment" : "(signal) centre speaker",
					"id" : "obj-39",
					"maxclass" : "outlet",
					"numinlets" : 1,
					"numoutlets" : 0,
					"patching_rect" : [ 105.0, 240.0, 25.0, 25.0 ]
				}

			}
, 			{
				"box" : 				{
					"comment" : "(signal) far left speaker",
					"id" : "obj-38",
					"maxclass" : "outlet",
					"numinlets" : 1,
					"numoutlets" : 0,
					"patching_rect" : [ 15.0, 240.0, 25.0, 25.0 ]
				}

			}
, 			{
				"box" : 				{
					"comment" : "(signal) input to pan",
					"id" : "obj-37",
					"maxclass" : "inlet",
					"numinlets" : 0,
					"numoutlets" : 1,
					"outlettype" : [ "" ],
					"patching_rect" : [ 15.0, 15.0, 25.0, 25.0 ]
				}

			}
, 			{
				"box" : 				{
					"color" : [ 0.8, 0.84, 0.7, 1.0 ],
					"fontname" : "Helvetica Neue",
					"fontsize" : 12.0,
					"id" : "obj-36",
					"maxclass" : "newobj",
					"numinlets" : 1,
					"numoutlets" : 1,
					"outlettype" : [ "signal" ],
					"patching_rect" : [ 60.0, 180.0, 33.0, 20.0 ],
					"text" : "sig~"
				}

			}
, 			{
				"box" : 				{
					"color" : [ 0.8, 0.84, 0.7, 1.0 ],
					"fontname" : "Helvetica Neue",
					"fontsize" : 12.0,
					"id" : "obj-27",
					"maxclass" : "newobj",
					"numinlets" : 6,
					"numoutlets" : 1,
					"outlettype" : [ "" ],
					"patching_rect" : [ 60.0, 150.0, 150.0, 20.0 ],
					"text" : "scale -100. 100. 0. 0.6666"
				}

			}
, 			{
				"box" : 				{
					"id" : "obj-24",
					"maxclass" : "live.slider",
					"numinlets" : 1,
					"numoutlets" : 2,
					"orientation" : 1,
					"outlettype" : [ "", "float" ],
					"parameter_enable" : 1,
					"patching_rect" : [ 60.0, 105.0, 96.0, 40.0 ],
					"presentation" : 1,
					"presentation_rect" : [ 0.0, 2.0, 96.0, 40.0 ],
					"prototypename" : "pan",
					"saved_attribute_attributes" : 					{
						"valueof" : 						{
							"parameter_linknames" : 1,
							"parameter_longname" : "#1-front3-pan",
							"parameter_shortname" : "pan",
							"parameter_type" : 0,
							"parameter_mmin" : -100.0,
							"parameter_mmax" : 100.0,
							"parameter_initial_enable" : 1,
							"parameter_initial" : [ 0 ],
							"parameter_unitstyle" : 6,
							"parameter_speedlim" : 0.0
						}

					}
,
					"varname" : "#1-front3-pan"
				}

			}
, 			{
				"box" : 				{
					"color" : [ 0.760784, 0.709804, 0.811765, 1.0 ],
					"fontname" : "Helvetica Neue",
					"fontsize" : 12.0,
					"id" : "obj-23",
					"maxclass" : "newobj",
					"numinlets" : 5,
					"numoutlets" : 3,
					"outlettype" : [ "signal", "signal", "signal" ],
					"patching_rect" : [ 15.0, 210.0, 199.0, 20.0 ],
					"text" : "z.pan3s 0.666 0. 0.5"
				}

			}
, 			{
				"box" : 				{
					"background" : 1,
					"bgcolor" : [ 0.9, 0.9, 0.9, 1.0 ],
					"id" : "obj-75",
					"maxclass" : "panel",
					"numinlets" : 1,
					"numoutlets" : 0,
					"patching_rect" : [ 0.0, 0.0, 300.0, 285.0 ],
					"presentation" : 1,
					"presentation_rect" : [ 0.0, 0.0, 150.0, 45.0 ],
					"rounded" : 0
				}

			}
 ],
		"lines" : [ 			{
				"patchline" : 				{
					"destination" : [ "obj-6", 0 ],
					"disabled" : 0,
					"hidden" : 0,
					"source" : [ "obj-1", 0 ]
				}

			}
, 			{
				"patchline" : 				{
					"destination" : [ "obj-1", 0 ],
					"disabled" : 0,
					"hidden" : 0,
					"source" : [ "obj-2", 0 ]
				}

			}
, 			{
				"patchline" : 				{
					"destination" : [ "obj-38", 0 ],
					"disabled" : 0,
					"hidden" : 0,
					"source" : [ "obj-23", 0 ]
				}

			}
, 			{
				"patchline" : 				{
					"destination" : [ "obj-39", 0 ],
					"disabled" : 0,
					"hidden" : 0,
					"source" : [ "obj-23", 1 ]
				}

			}
, 			{
				"patchline" : 				{
					"destination" : [ "obj-40", 0 ],
					"disabled" : 0,
					"hidden" : 0,
					"source" : [ "obj-23", 2 ]
				}

			}
, 			{
				"patchline" : 				{
					"destination" : [ "obj-27", 0 ],
					"disabled" : 0,
					"hidden" : 0,
					"source" : [ "obj-24", 0 ]
				}

			}
, 			{
				"patchline" : 				{
					"destination" : [ "obj-36", 0 ],
					"disabled" : 0,
					"hidden" : 0,
					"source" : [ "obj-27", 0 ]
				}

			}
, 			{
				"patchline" : 				{
					"destination" : [ "obj-23", 1 ],
					"disabled" : 0,
					"hidden" : 0,
					"source" : [ "obj-36", 0 ]
				}

			}
, 			{
				"patchline" : 				{
					"destination" : [ "obj-23", 0 ],
					"disabled" : 0,
					"hidden" : 0,
					"source" : [ "obj-37", 0 ]
				}

			}
, 			{
				"patchline" : 				{
					"destination" : [ "obj-23", 2 ],
					"disabled" : 0,
					"hidden" : 0,
					"source" : [ "obj-44", 0 ]
				}

			}
, 			{
				"patchline" : 				{
					"destination" : [ "obj-24", 0 ],
					"disabled" : 0,
					"hidden" : 0,
					"source" : [ "obj-6", 1 ]
				}

			}
, 			{
				"patchline" : 				{
					"destination" : [ "obj-74", 0 ],
					"disabled" : 0,
					"hidden" : 0,
					"source" : [ "obj-6", 2 ]
				}

			}
, 			{
				"patchline" : 				{
					"destination" : [ "obj-44", 0 ],
					"disabled" : 0,
					"hidden" : 0,
					"source" : [ "obj-63", 0 ]
				}

			}
, 			{
				"patchline" : 				{
					"destination" : [ "obj-24", 0 ],
					"disabled" : 0,
					"hidden" : 0,
					"source" : [ "obj-7", 0 ]
				}

			}
, 			{
				"patchline" : 				{
					"destination" : [ "obj-63", 0 ],
					"disabled" : 0,
					"hidden" : 0,
					"source" : [ "obj-74", 0 ]
				}

			}
, 			{
				"patchline" : 				{
					"destination" : [ "obj-74", 0 ],
					"disabled" : 0,
					"hidden" : 0,
					"source" : [ "obj-8", 0 ]
				}

			}
 ],
		"parameters" : 		{
			"obj-24" : [ "#1-front3-pan", "pan", 0 ],
			"obj-74" : [ "#1-front3-width", "width", 0 ]
		}
,
		"dependency_cache" : [ 			{
				"name" : "z.pan3s.maxpat",
				"bootpath" : "/Users/chris/Desktop/desktop/Max/hgnm-dal-niente/externals/z.abstractions/z.abstractions_patches/z.panning",
				"patcherrelativepath" : "../externals/z.abstractions/z.abstractions_patches/z.panning",
				"type" : "JSON",
				"implicit" : 1
			}
, 			{
				"name" : "z.scale.maxpat",
				"bootpath" : "/Users/chris/Desktop/desktop/Max/hgnm-dal-niente/externals/z.abstractions/z.abstractions_patches/z.scale",
				"patcherrelativepath" : "../externals/z.abstractions/z.abstractions_patches/z.scale",
				"type" : "JSON",
				"implicit" : 1
			}
 ]
	}

}
